<?xml version="1.0" standalone="no"?>
<!DOCTYPE svg PUBLIC "-//W3C//DTD SVG 20010904//EN"
 "http://www.w3.org/TR/2001/REC-SVG-20010904/DTD/svg10.dtd">
<svg version="1.0" xmlns="http://www.w3.org/2000/svg"
 width="512.000000pt" height="512.000000pt" viewBox="0 0 512.000000 512.000000"
 preserveAspectRatio="xMidYMid meet">

<g transform="translate(0.000000,512.000000) scale(0.100000,-0.100000)"
fill="#cdd6f4" stroke="none">
<path d="M4255 4853 c-11 -3 -292 -81 -625 -174 -333 -94 -767 -215 -965 -271
-198 -55 -364 -104 -368 -108 -10 -8 52 -260 64 -260 4 0 248 52 541 116 293
63 677 146 853 184 550 119 594 129 631 146 64 31 65 37 27 197 -19 78 -40
147 -46 154 -14 14 -83 24 -112 16z"/>
<path d="M1620 4731 l-305 -76 1 -170 c1 -241 49 -498 150 -805 47 -140 150
-364 181 -392 17 -15 41 -11 323 59 193 47 310 81 318 91 17 22 16 193 -4 344
-26 207 -86 458 -156 656 -65 185 -162 373 -190 371 -7 -1 -150 -35 -318 -78z"/>
<path d="M570 2863 c0 -63 33 -224 65 -320 71 -212 181 -389 345 -554 163
-163 286 -243 521 -336 184 -74 286 -132 365 -210 174 -173 175 -378 2 -553
-28 -28 -75 -68 -104 -87 -30 -20 -54 -37 -54 -39 0 -2 479 -4 1065 -4 l1065
0 -6 28 c-12 53 -66 158 -135 263 -85 128 -110 196 -110 293 0 297 387 610
869 702 l92 18 0 413 0 413 -1990 0 -1990 0 0 -27z"/>
<path d="M850 455 l0 -195 1825 0 1825 0 0 195 0 195 -1825 0 -1825 0 0 -195z"/>
</g>
</svg>
