<?xml version="1.0" standalone="no"?>
<!DOCTYPE svg PUBLIC "-//W3C//DTD SVG 20010904//EN"
 "http://www.w3.org/TR/2001/REC-SVG-20010904/DTD/svg10.dtd">
<svg version="1.0" xmlns="http://www.w3.org/2000/svg"
 width="512.000000pt" height="512.000000pt" viewBox="0 0 512.000000 512.000000"
 preserveAspectRatio="xMidYMid meet">

<g transform="translate(0.000000,512.000000) scale(0.100000,-0.100000)"
fill="#FFFFFF" stroke="none">
<path d="M4036 5100 c-235 -75 -345 -334 -238 -559 21 -46 85 -115 352 -383
386 -387 407 -401 580 -400 172 2 320 115 372 285 41 136 9 266 -96 388 -87
101 -571 579 -625 618 -94 67 -232 87 -345 51z"/>
<path d="M3385 4218 c-11 -6 -40 -28 -65 -48 -105 -86 -204 -122 -333 -122
-68 0 -105 8 -212 42 -420 132 -829 143 -1235 34 -695 -187 -1255 -740 -1456
-1436 -298 -1037 228 -2126 1222 -2532 923 -376 1989 -49 2541 779 357 535
446 1198 247 1825 -45 142 -55 211 -43 294 13 92 43 167 97 237 26 33 55 73
64 87 23 34 23 110 2 142 -27 41 -667 680 -696 696 -32 17 -105 18 -133 2z
m-1321 -656 c91 -42 149 -100 194 -190 35 -72 37 -81 37 -172 0 -91 -2 -100
-37 -172 -45 -91 -103 -147 -196 -191 -61 -29 -76 -32 -162 -32 -86 0 -101 3
-162 32 -93 44 -151 100 -196 191 -35 72 -37 81 -37 171 0 87 3 102 32 163 40
85 97 147 172 186 78 42 122 52 213 48 61 -3 92 -11 142 -34z m-1049 -982
c339 -86 571 -189 1090 -483 511 -290 782 -407 1153 -497 106 -26 143 -52 163
-118 17 -58 4 -95 -73 -212 -76 -115 -242 -289 -358 -376 -164 -122 -381 -219
-600 -265 -150 -32 -429 -33 -577 -1 -299 65 -554 203 -768 417 -219 218 -360
481 -422 790 -26 134 -24 414 5 554 29 140 54 190 112 219 53 27 61 26 275
-28z"/>
</g>
</svg>
